<?xml version="1.0" encoding="UTF-8" standalone="no"?>
<!-- Created with Inkscape (http://www.inkscape.org/) -->

<svg
   width="24"
   height="24"
   viewBox="0 0 24 24"
   version="1.1"
   id="svg5"
   xmlns="http://www.w3.org/2000/svg"
   xmlns:svg="http://www.w3.org/2000/svg">
  <defs
     id="defs2" />
  <g
     id="layer1">
    <g
       style="fill:#455a64"
       id="g848"
       transform="matrix(0.26458333,0,0,0.26458333,8.8249997,8.8249997)">
      <g
         id="g826">
        <rect
           fill="none"
           height="24"
           width="24"
           id="rect824"
           x="0"
           y="0" />
      </g>
      <g
         id="g834">
        <g
           id="g828" />
        <g
           id="g2223">
          <g
             id="g21016">
            <g
               style="fill:#455a64"
               id="g1493"
               transform="matrix(3.7795276,0,0,3.7795276,-33.35433,-33.35433)">
              <g
                 id="g1471">
                <path
                   id="rect1469"
                   style="fill:none"
                   d="M 0,0 H 24 V 24 H 0 Z" />
              </g>
              <g
                 id="g1479">
                <g
                   id="g1473" />
                <g
                   id="g1477">
                  <path
                     id="path1475"
                     d="m 12,3 c -1.1,0 -2,0.9 -2,2 0,0.12 0.0193,0.2298438 0.0293,0.3398438 C 7.6892965,6.1498433 6,8.38 6,11 v 8 c 0,1.1 0.9,2 2,2 h 8 c 1.1,0 2,-0.9 2,-2 V 11 C 18,8.38 16.310703,6.1498433 13.970703,5.3398438 13.980703,5.2298438 14,5.12 14,5 14,3.9 13.1,3 12,3 Z m 0,1 c 0.55,0 1,0.45 1,1 0,0.03 -0.0095,0.059844 -0.01953,0.089844 C 12.660469,5.0298438 12.34,5 12,5 11.66,5 11.339531,5.0298438 11.019531,5.0898438 11.009531,5.0598438 11,5.03 11,5 11,4.45 11.45,4 12,4 Z m -3.4726562,6.398438 h 1.15625 v 2.640624 h 0.3093354 l -2.37e-5,-1.171146 1.0827105,-10e-7 0.011,1.171146 h 0.333304 l -0.03504,-2.587315 h 0.578125 0.578125 l 0.01105,2.587315 h 0.356024 V 12.060547 H 14.0625 v 0.978515 h 0.330078 v -2.552734 h 1.15625 v 2.552734 h 0.966797 v 0.357422 H 9.6835938 8.5273438 7.6035156 v -0.357422 h 0.9238282 z"
                     />
                </g>
              </g>
            </g>
          </g>
        </g>
      </g>
    </g>
  </g>
</svg>
